# xmcd
#
# Track frame offsets:
#	182
#	11432
#	25002
#	37662
#	50665
#	63590
#	75800
#	86045
#	96050
#	108445
#	119005
#	132102
#	144732
#	157987
#	169995
#	180967
#
# Disc length: 2563
#
# Revision: 2
# Processed by: cddbd v1.5.1PL0 Copyright (c) Steve Scherf et al.
# Submitted via: dBpowerAMP V4.0
# Normalized: r0:TSWAP
#
DISCID=c10a0110
DTITLE=Various Artist - Country Greats Disc 1
DYEAR=1900
DGENRE=Country
TTITLE0=Conway Twitty - Green, Green Grass Of Home
TTITLE1=Marty Robbins - Funny Face
TTITLE2=Patrsy Cline - I Fall To Pieces
TTITLE3=Jack Greene - Almost Persuaded
TTITLE4=Cal Smith - The Lord Knows I'm Drinking
TTITLE5=Mel Tillis - Heartaches By The Number
TTITLE6=Leroy Van Dyke - Walk On By
TTITLE7=Jeanne Pruett - The Happiest Girl In The Whole U.S.A.
TTITLE8=Kitty Wells - D-I-V-O-R-C-E
TTITLE9=Marty Robbins - The Taker
TTITLE10=Bill Anderson - Gentle On My Mind
TTITLE11=Loretta Lynn - Johnny One Time
TTITLE12=Ernest Tubb - Help Me Make It Through The Night
TTITLE13=Conway Twitty - By The Time I get To Phoenix
TTITLE14=Freddie Hart - There Goes My Everything
TTITLE15=Bill Monroe - Cotton Fields
EXTD=ripped bty shyone
EXTT0=
EXTT1=
EXTT2=
EXTT3=
EXTT4=
EXTT5=
EXTT6=
EXTT7=
EXTT8=
EXTT9=
EXTT10=
EXTT11=
EXTT12=
EXTT13=
EXTT14=
EXTT15=
PLAYORDER=
